# xmcd
# 
# Track frame offsets:
#     150
#     13837
#     35920
#     49677
#     66012
#     88330
#     104480
#     123317
#     136330
#     152090
#     167712
#     183350
#     196560
#     228757
# 
# Disc length: 3987
# 
# Revision: 4
# Processed by: cddbd v1.5.2PL0 Copyright (c) Steve Scherf et al.
# Submitted via: fre:ac v1.0.27
# 
DISCID=b80f910e
DTITLE=Lee Ann Womack - I Hope You Dance
DYEAR=2000
DGENRE=
TTITLE0=The Healing Kind
TTITLE1=I Hope You Dance
TTITLE2=After I Fall
TTITLE3=Stronger Than I Am
TTITLE4=I Know Why The River Runs
TTITLE5=Why They Call It Falling
TTITLE6=Ashes By Now
TTITLE7=Thinkin' With My Heart Again
TTITLE8=I Feel Like I'm Forgetting Something
TTITLE9=Lonely Too
TTITLE10=Does My Ring Burn Your Finger
TTITLE11=Lord I Hope This Day Is Good
TTITLE12=I Hope You Dance (the Rawling mix)
TTITLE13=Data Track
EXTD=
EXTT0=
EXTT1=
EXTT2=
EXTT3=
EXTT4=
EXTT5=
EXTT6=
EXTT7=
EXTT8=
EXTT9=
EXTT10=
EXTT11=
EXTT12=
EXTT13=
PLAYORDER=
